# xmcd
#
# Track frame offsets:
#	150
#	11754
#	25922
#	37400
#	56235
#	68779
#	78678
#	89102
#	110964
#	130091
#	142006
#	157377
#	168540
#	180910
#	198160
#	216976
#	228311
#	241725
#	254559
#	264921
#	274687
#	284845
#
# Disc length: 4065 seconds
#
# Revision: 2
# Processed by: cddbd v1.5.2PL0 Copyright (c) Steve Scherf et al.
# Submitted via: EasyCDDAExtractor 6.5.0.1
#
DISCID=5d0fdf16
DTITLE=Dusty Springfield - Dusty - The Legend Of Dusty Springfield - CD3
DYEAR=1994
DGENRE=Pop
TTITLE0=La Bamba
TTITLE1=A Love Like Yours
TTITLE2=Go Ahead On
TTITLE3=What Have I Done To Deserve This (With The Pet Shop Boys)
TTITLE4=In The Middle Of Nowhere
TTITLE5=Another Night
TTITLE6=Little By Little
TTITLE7=That's The Kind Of Love I've Got For You
TTITLE8=In Private
TTITLE9=I Just Wannt To Be There
TTITLE10=Mama's Little Girl
TTITLE11=I Can't Give Back The Love I Feel For You
TTITLE12=Oh No! Not My Baby
TTITLE13=Donnez Moi (Give It To Me) 
TTITLE14=Reputation
TTITLE15=Mockingbird
TTITLE16=Am I The Same Girl
TTITLE17=When The Lovelight Starts Shining Through His Eyes
TTITLE18=Take Me For A Little While
TTITLE19=Bring Him Back
TTITLE20=Every Ounce Of Strength
TTITLE21=Blind Sheep
EXTD=
EXTT0=
EXTT1=
EXTT2=
EXTT3=
EXTT4=
EXTT5=
EXTT6=
EXTT7=
EXTT8=
EXTT9=
EXTT10=
EXTT11=
EXTT12=
EXTT13=
EXTT14=
EXTT15=
EXTT16=
EXTT17=
EXTT18=
EXTT19=
EXTT20=
EXTT21=
PLAYORDER=
